<svg width="1600" height="480" viewBox="0 0 1600 480" fill="none" xmlns="http://www.w3.org/2000/svg">
  <defs>
    <linearGradient id="bg" x1="104" y1="36" x2="1492" y2="460" gradientUnits="userSpaceOnUse">
      <stop stop-color="#F7FBFF"/>
      <stop offset="0.48" stop-color="#EEF6FF"/>
      <stop offset="1" stop-color="#E7E5FF"/>
    </linearGradient>
    <linearGradient id="mark-bg" x1="108" y1="72" x2="464" y2="418" gradientUnits="userSpaceOnUse">
      <stop stop-color="#66D4FF"/>
      <stop offset="0.45" stop-color="#0A84FF"/>
      <stop offset="1" stop-color="#5E5CE6"/>
    </linearGradient>
    <linearGradient id="word" x1="530" y1="160" x2="1300" y2="340" gradientUnits="userSpaceOnUse">
      <stop stop-color="#111827"/>
      <stop offset="1" stop-color="#303C62"/>
    </linearGradient>
    <filter id="shadow" x="-30%" y="-30%" width="160%" height="180%">
      <feDropShadow dx="0" dy="22" stdDeviation="28" flood-color="#2966B0" flood-opacity="0.2"/>
    </filter>
    <filter id="soft" x="-40%" y="-40%" width="180%" height="180%">
      <feGaussianBlur stdDeviation="46"/>
    </filter>
  </defs>

  <rect width="1600" height="480" rx="42" fill="url(#bg)"/>
  <ellipse cx="1420" cy="54" rx="260" ry="178" fill="#7A67FF" fill-opacity="0.17" filter="url(#soft)"/>
  <ellipse cx="84" cy="436" rx="252" ry="174" fill="#53C7FF" fill-opacity="0.23" filter="url(#soft)"/>

  <g filter="url(#shadow)">
    <rect x="116" y="72" width="336" height="336" rx="84" fill="url(#mark-bg)"/>
    <rect x="198" y="128" width="172" height="224" rx="40" fill="white" fill-opacity="0.94"/>
    <rect x="250" y="118" width="68" height="28" rx="14" fill="#F5F9FF"/>
    <path d="M284 166V242" stroke="#0A84FF" stroke-width="24" stroke-linecap="round"/>
    <path d="M246 216L284 254L322 216" stroke="#0A84FF" stroke-width="24" stroke-linecap="round" stroke-linejoin="round"/>
    <rect x="222" y="250" width="124" height="76" rx="22" fill="#DDEEFF"/>
    <path d="M232 313L264 281L286 301L302 286L336 318H232V313Z" fill="#0A84FF"/>
    <circle cx="317" cy="272" r="10" fill="#FFCC00"/>
  </g>

  <text x="526" y="225" fill="url(#word)" font-family="-apple-system, BlinkMacSystemFont, 'Segoe UI', sans-serif" font-size="102" font-weight="720" letter-spacing="-4">ObsiPastePic</text>
  <text x="532" y="294" fill="#52617B" font-family="-apple-system, BlinkMacSystemFont, 'Segoe UI', sans-serif" font-size="34" font-weight="480" letter-spacing="0.4">Paste once. Upload anywhere. Read faster.</text>

  <g font-family="-apple-system, BlinkMacSystemFont, 'Segoe UI', sans-serif" font-size="22" font-weight="620">
    <rect x="532" y="330" width="132" height="48" rx="24" fill="white" fill-opacity="0.72"/>
    <text x="568" y="361" fill="#2468B3">Paste</text>
    <rect x="678" y="330" width="144" height="48" rx="24" fill="white" fill-opacity="0.72"/>
    <text x="711" y="361" fill="#4B5AA4">Upload</text>
    <rect x="836" y="330" width="178" height="48" rx="24" fill="white" fill-opacity="0.72"/>
    <text x="867" y="361" fill="#624EA8">Accelerate</text>
  </g>

  <rect x="1" y="1" width="1598" height="478" rx="41" stroke="white" stroke-opacity="0.7" stroke-width="2"/>
</svg>
